<svg id="afro" xmlns="http://www.w3.org/2000/svg" width="1564.86" height="2306.69" viewBox="0 0 1564.86 2306.69">
  <g id="Grupo_43" data-name="Grupo 43" transform="translate(205.758 1080.693)" opacity="0.2">
    <g id="Grupo_42" data-name="Grupo 42">
      <path id="Caminho_21" data-name="Caminho 21" d="M1135.8,62.507c-54.489,190.711-172.548,317.851-308.77,317.851H754.38c36.326,118.059-27.244,281.525-172.548,281.525S372.958,507.5,409.284,380.358c-9.082,0-18.163,0-27.244,9.081H336.633C182.248,389.44,55.107,235.055,9.7,17.1V244.137c0,263.362,245.2,490.4,553.969,490.4h0c308.77,0,553.969-217.955,553.969-490.4Z" transform="translate(-9.7 -17.1)" fill="#1a2330"/>
    </g>
  </g>
  <g id="Grupo_45" data-name="Grupo 45" transform="translate(178.513 290.607)">
    <g id="Grupo_44" data-name="Grupo 44">
      <path id="Caminho_22" data-name="Caminho 22" d="M608.776,1534.085C272.763,1534.085,9.4,1261.641,9.4,934.709V607.776C9.4,271.762,281.844,8.4,608.776,8.4s599.376,272.444,599.376,599.376V925.627C1208.153,1261.641,944.791,1534.085,608.776,1534.085Zm0-1434.87c-281.525,0-508.562,227.036-508.562,508.562V925.627c0,281.525,227.037,508.562,508.562,508.562h0c281.525,0,508.562-227.036,508.562-508.562V607.776C1117.338,326.251,890.3,99.215,608.776,99.215Z" transform="translate(-9.4 -8.4)" fill="#03256c"/>
    </g>
  </g>
  <g id="Grupo_47" data-name="Grupo 47" transform="translate(0 937.511)">
    <g id="Grupo_46" data-name="Grupo 46">
      <path id="Caminho_23" data-name="Caminho 23" d="M204.11,431.149c-72.652,0-145.3-63.57-181.629-154.385-18.163-54.489-18.163-99.9-9.081-145.3,9.081-54.489,45.407-90.815,90.815-108.977s108.978,0,154.385,45.407l-63.57,72.652C176.866,122.379,158.7,113.3,140.54,122.379S113.3,149.624,113.3,158.705c-9.081,27.244,0,63.57,9.082,90.815,18.163,63.57,72.652,99.9,99.9,90.815L258.6,431.149C231.355,422.068,213.192,431.149,204.11,431.149Z" transform="translate(-7.434 -15.523)" fill="#03256c"/>
    </g>
  </g>
  <g id="Grupo_49" data-name="Grupo 49" transform="translate(1313.695 928.43)">
    <g id="Grupo_48" data-name="Grupo 48">
      <path id="Caminho_24" data-name="Caminho 24" d="M67.307,440.13c-18.163,0-27.244,0-45.407-9.081l36.326-90.815c27.244,9.082,72.652-27.244,99.9-90.815,9.082-36.326,18.163-63.57,9.082-90.815,0-9.081-9.082-27.244-27.244-36.326s-36.326,0-54.489,18.163L21.9,67.791c45.407-45.407,99.9-63.57,154.385-45.407,45.407,18.163,72.652,54.489,90.815,108.977,9.081,45.407,9.081,99.9-9.082,145.3C212.611,376.56,139.959,440.13,67.307,440.13Z" transform="translate(-21.9 -15.423)" fill="#03256c"/>
    </g>
  </g>
  <g id="Grupo_51" data-name="Grupo 51" transform="translate(449.794 1107.938)">
    <g id="Grupo_50" data-name="Grupo 50">
      <path id="Caminho_25" data-name="Caminho 25" d="M140.691,99.133q-13.622,0-27.244-27.244V53.726c0-18.163-9.082-36.326-27.244-36.326h0C49.876,17.4,13.55,53.726,13.55,90.052c-9.081,54.489,36.326,99.9,90.815,90.815,36.326,0,63.57-27.244,72.652-54.489h0s-18.163-18.163-36.326-27.244Z" transform="translate(-12.387 -17.4)" fill="#03256c"/>
    </g>
  </g>
  <g id="Grupo_53" data-name="Grupo 53" transform="translate(940.193 1107.938)">
    <g id="Grupo_52" data-name="Grupo 52">
      <path id="Caminho_26" data-name="Caminho 26" d="M146.09,99.133q-13.622,0-27.244-27.244V53.726c0-18.163-9.082-36.326-27.244-36.326h0C55.276,17.4,18.95,53.726,18.95,90.052c-9.082,54.489,36.326,99.9,90.815,90.815,36.326,0,63.57-27.244,72.652-54.489h0s-9.082-18.163-36.326-27.244C155.172,108.215,146.09,108.215,146.09,99.133Z" transform="translate(-17.787 -17.4)" fill="#03256c"/>
    </g>
  </g>
  <g id="Grupo_55" data-name="Grupo 55" transform="translate(133.106 1625.581)">
    <g id="Grupo_54" data-name="Grupo 54">
      <path id="Caminho_27" data-name="Caminho 27" d="M653.684,704.209C290.425,704.209,8.9,549.825,8.9,340.951,8.9,222.892,99.715,123,263.181,50.344L317.67,23.1l54.489,81.733c-27.244,18.163-45.407,27.244-72.652,36.326C181.448,195.648,108.8,277.381,108.8,350.033c0,127.14,217.955,263.362,544.888,263.362s544.888-136.222,544.888-263.362c0-72.652-72.652-145.3-181.629-190.711-27.244-9.081-54.489-27.244-81.733-45.407L989.7,32.182c18.163,18.163,36.326,27.244,63.571,36.326,154.385,63.57,245.2,172.548,245.2,281.525C1298.468,549.825,1016.942,704.209,653.684,704.209Z" transform="translate(-8.9 -23.1)" fill="#03256c"/>
    </g>
  </g>
  <g id="Grupo_57" data-name="Grupo 57" transform="translate(569.016 1344.056)">
    <g id="Grupo_56" data-name="Grupo 56">
      <path id="Caminho_28" data-name="Caminho 28" d="M322.47,20H131.759C68.189,20,13.7,74.489,13.7,138.059V474.073c0,36.326,27.244,72.652,63.57,81.733,27.244,9.082,54.489-9.082,72.652-27.244v18.163c0,36.326,27.244,72.652,72.652,81.733s81.733-27.244,81.733-72.652V537.643c18.163,18.163,45.407,36.326,72.652,27.244,36.326-9.082,63.57-45.407,63.57-81.733V147.14C440.529,65.407,386.04,20,322.47,20Zm-99.9,299.688c-72.652,0-136.222-63.57-136.222-136.222s63.57-81.733,136.222-81.733S358.8,110.815,358.8,183.466,295.225,319.688,222.574,319.688Z" transform="translate(-13.7 -20)" fill="#03256c"/>
    </g>
  </g>
  <path id="Caminho_29" data-name="Caminho 29" d="M1461.034,740.8c0-45.407-27.244-81.733-63.57-108.978,27.244-36.326,36.326-72.652,27.244-118.059-18.163-45.407-45.407-72.652-90.815-81.733,18.163-36.326,9.082-81.733-18.163-118.059-18.163-36.326-63.57-54.489-99.9-54.489q0-68.111-54.489-108.977c-36.326-27.244-81.733-27.244-118.059-18.163-9.082-36.326-36.326-72.652-81.733-90.815s-90.815,0-118.059,27.244C825.332,32.444,779.924,5.2,734.517,5.2S652.784,32.444,625.539,68.77C589.214,41.526,552.888,32.444,507.48,41.526c-45.407,18.163-72.652,45.407-81.733,90.815-36.326-18.163-81.733-9.081-118.059,18.163S253.2,223.155,253.2,259.481q-68.111,0-108.977,54.489C116.978,350.3,116.978,395.7,126.059,432.028c-36.326,9.082-72.652,36.326-90.815,81.733s0,90.815,27.244,118.059Q8,672.687,8,740.8c0,45.407,27.244,81.733,63.57,108.977C44.326,886.1,35.244,922.427,44.326,967.834c18.163,45.407,45.407,72.652,90.815,81.733-18.163,36.326-9.081,81.733,18.163,118.059,9.082,18.163,18.163,27.244,36.326,36.326h45.407V949.672c0-127.141,108.977-236.118,236.118-236.118h0c27.244,0,45.407,9.082,72.652,27.245,54.489,45.407,118.059,72.652,190.711,72.652s145.3-27.244,190.711-72.652q40.866-27.244,81.733-27.245h0c127.14,0,236.118,108.977,236.118,236.118v254.281h45.407c18.163-9.082,27.244-18.163,36.326-36.326,27.244-36.326,27.244-81.733,18.163-118.059,36.326-9.082,72.652-36.326,90.815-81.733s0-90.815-27.244-118.059C1442.871,831.613,1461.034,786.205,1461.034,740.8Z" transform="translate(43.372 -5.2)" fill="#03256c"/>
</svg>
