<svg id="beard" xmlns="http://www.w3.org/2000/svg" width="1564.86" height="2188.631" viewBox="0 0 1564.86 2188.631">
  <g id="Grupo_8" data-name="Grupo 8" transform="translate(124.024 1515.867)">
    <g id="Grupo_7" data-name="Grupo 7">
      <path id="Caminho_3" data-name="Caminho 3" d="M653.684,696.156C290.425,696.156,8.9,541.771,8.9,332.9c0-118.059,90.815-217.955,254.281-290.607C326.751,15.046,399.4,33.209,435.729,87.7L653.684,351.06,871.639,78.617C917.046,24.128,989.7,5.965,1044.187,42.291h9.082c154.385,63.57,245.2,172.548,245.2,281.525C1298.468,541.771,1016.942,696.156,653.684,696.156ZM326.751,133.105H308.588C181.448,187.594,108.8,260.246,108.8,341.979c0,127.14,217.955,263.362,544.888,263.362s544.888-136.222,544.888-263.362c0-72.652-72.652-145.3-181.629-190.711,0,0-9.081,0-9.081-9.082-18.163-9.082-45.407,0-54.489,9.082h0L662.765,514.527,372.158,160.35C354,142.187,335.833,133.105,326.751,133.105Z" transform="translate(-8.9 -23.392)" fill="#03256c"/>
    </g>
  </g>
  <g id="Grupo_10" data-name="Grupo 10" transform="translate(169.431 172.548)">
    <g id="Grupo_9" data-name="Grupo 9">
      <path id="Caminho_4" data-name="Caminho 4" d="M608.776,1525.2C272.763,1525.2,9.4,1252.76,9.4,925.827V607.976C9.4,271.962,281.844,8.6,608.776,8.6s599.376,272.444,599.376,599.376V925.827C1208.153,1261.841,944.791,1525.2,608.776,1525.2Zm0-1425.789c-281.525,0-508.562,227.036-508.562,508.562V925.828c0,281.525,227.037,508.561,508.562,508.561s508.562-227.036,508.562-508.561V607.976C1117.338,326.451,890.3,99.415,608.776,99.415Z" transform="translate(-9.4 -8.6)" fill="#03256c"/>
    </g>
  </g>
  <g id="Grupo_12" data-name="Grupo 12" transform="translate(0 810.371)">
    <g id="Grupo_11" data-name="Grupo 11">
      <path id="Caminho_5" data-name="Caminho 5" d="M195.129,431.249c-27.244,0-63.57-9.082-90.815-36.326-36.326-27.244-63.57-72.652-81.733-118.059-18.163-54.489-18.163-99.9-9.081-145.3,9.081-54.489,45.407-90.815,90.815-108.978s108.977,0,154.385,45.407l-81.733,72.652C158.8,122.479,140.64,113.4,122.477,122.479s-27.244,27.244-27.244,36.326c-9.082,27.244,0,63.57,9.081,90.814s36.326,54.489,54.489,72.652c9.082,9.082,27.244,18.163,45.407,9.082l36.326,90.815C222.373,431.249,204.21,431.249,195.129,431.249Z" transform="translate(-7.534 -15.623)" fill="#03256c"/>
    </g>
  </g>
  <g id="Grupo_14" data-name="Grupo 14" transform="translate(1313.695 810.371)">
    <g id="Grupo_13" data-name="Grupo 13">
      <path id="Caminho_6" data-name="Caminho 6" d="M58.326,431.249c-18.163,0-27.244,0-36.326-9.082l36.326-90.815c18.163,9.082,36.326-9.082,45.407-9.082,18.163-18.163,45.407-45.407,54.489-72.652,9.082-36.326,18.163-63.57,9.082-90.815,0-9.082-9.082-27.244-27.244-36.326s-36.326,0-54.489,18.163L22,67.991c45.407-45.407,99.9-63.57,154.385-45.407,45.407,18.163,72.652,54.489,90.815,108.978,9.082,45.407,9.082,99.9-9.081,145.3-18.163,54.489-45.407,90.815-81.733,118.059C121.9,422.167,94.652,431.249,58.326,431.249Z" transform="translate(-22 -15.623)" fill="#03256c"/>
    </g>
  </g>
  <g id="Grupo_16" data-name="Grupo 16" transform="translate(949.274 908.146)">
    <g id="Grupo_15" data-name="Grupo 15">
      <path id="Caminho_7" data-name="Caminho 7" d="M146.29,98.433q-13.622,0-27.244-27.244V53.026c0-18.163-9.082-36.326-27.244-36.326h0C55.476,16.7,19.15,53.026,19.15,89.352c-9.082,54.489,36.326,99.9,90.815,90.815,36.326,0,63.57-27.244,72.652-54.489h0c9.081-9.082-9.082-27.244-36.326-27.244Z" transform="translate(-17.987 -16.7)" fill="#03256c"/>
    </g>
  </g>
  <g id="Grupo_18" data-name="Grupo 18" transform="translate(422.549 908.146)">
    <g id="Grupo_17" data-name="Grupo 17">
      <path id="Caminho_8" data-name="Caminho 8" d="M140.491,98.433q-13.622,0-27.244-27.244V53.026C113.246,34.863,104.165,16.7,86,16.7h0C49.676,16.7,13.35,53.026,13.35,89.352c-9.081,54.489,36.326,99.9,90.815,90.815,36.326,0,63.57-27.244,72.652-54.489h0c9.081-9.082-9.082-27.244-36.326-27.244Z" transform="translate(-12.187 -16.7)" fill="#03256c"/>
    </g>
  </g>
  <g id="Grupo_20" data-name="Grupo 20" transform="translate(169.431 0)">
    <g id="Grupo_19" data-name="Grupo 19">
      <path id="Caminho_9" data-name="Caminho 9" d="M1208.153,905.764l-36.326-535.806c-9.081-63.57-45.407-118.059-99.9-154.385-72.651-45.407-163.466-54.489-236.118-18.163C817.65,88.433,726.835,6.7,608.776,6.7c-54.489,0-108.977,18.163-145.3,54.489-63.57,54.489-145.3,99.9-227.037,108.977-36.326,9.082-63.57,18.163-90.815,36.326h0c-54.489,36.326-90.815,90.815-99.9,154.385L9.4,896.683l18.163-45.407C72.97,687.809,145.622,524.343,236.437,379.04h0c-27.244,108.978-9.081,217.955,45.407,308.77l27.244,45.407v-9.082c-18.163-127.14,18.163-254.281,108.978-354.177C454.392,442.61,536.125,497.1,626.94,497.1s172.548-54.489,208.873-127.14c81.733,99.9,127.14,227.037,108.978,354.177v9.082l27.244-45.407c54.489-99.9,63.57-208.874,45.407-308.77,90.815,145.3,163.466,308.77,208.874,472.236Z" transform="translate(-9.4 -6.7)" fill="#03256c"/>
    </g>
  </g>
  <g id="Grupo_22" data-name="Grupo 22" transform="translate(251.164 808.25)">
    <g id="Grupo_21" data-name="Grupo 21">
      <path id="Caminho_10" data-name="Caminho 10" d="M791.306,487.836c-18.163,18.163-54.489,9.082-63.57-18.163-36.326-54.489-90.815-81.733-154.385-81.733h-99.9c-63.57,0-118.059,36.326-154.385,81.733h0c-18.163,27.244-45.407,27.244-63.57,18.163C110.2,387.94,10.3,215.392,10.3,15.6V297.125c0,308.77,227.037,553.969,517.643,553.969s517.643-245.2,517.643-553.969V15.6C1045.587,215.392,945.691,387.94,791.306,487.836ZM527.943,705.791c-81.733,0-145.3-63.57-145.3-145.3s63.57-81.733,145.3-81.733,145.3,9.081,145.3,81.733C673.247,642.221,609.677,705.791,527.943,705.791Z" transform="translate(-10.3 -15.6)" fill="#03256c"/>
    </g>
  </g>
</svg>
