<svg xmlns="http://www.w3.org/2000/svg" width="1057.853" height="1454.536" viewBox="0 0 1057.853 1454.536">
  <path id="DNA" d="M347.8,842.647a66.116,66.116,0,0,0-93.223-3.306A739.168,739.168,0,0,0,4,1389.421a66.115,66.115,0,1,0,132.231,0A604.954,604.954,0,0,1,344.494,935.87a66.115,66.115,0,0,0,3.306-93.222Zm672.392,306.775A718.018,718.018,0,0,0,914.407,951.077,946.115,946.115,0,0,0,669.12,728.268c148.1-94.545,392.725-304.13,392.725-661.153a66.115,66.115,0,1,0-132.231,0c0,357.023-303.469,540.162-396.692,587.765a887.266,887.266,0,0,1-177.85-124.958h177.85a66.115,66.115,0,0,0,0-132.231H238.709a620.822,620.822,0,0,1-66.115-132.23H731.268a66.115,66.115,0,0,0,0-132.231H140.2a538.185,538.185,0,0,1-3.967-66.115A66.115,66.115,0,1,0,4,67.115C4,567.608,486.642,780.5,507.137,789.094h0a854.862,854.862,0,0,1,204.3,137.52H532.922a66.115,66.115,0,0,0,0,132.231H825.813a599.666,599.666,0,0,1,66.115,132.231H334.577a66.115,66.115,0,0,0,0,132.231H925.647a546.084,546.084,0,0,1,3.967,66.115,66.115,66.115,0,1,0,132.231,0,694.2,694.2,0,0,0-14.545-144.792,610.233,610.233,0,0,0-27.107-95.206Z" transform="translate(-4 -1)" fill="#03256c"/>
</svg>
