<svg id="female" xmlns="http://www.w3.org/2000/svg" width="1576.608" height="2225.308" viewBox="0 0 1576.608 2225.308">
  <g id="Grupo_24" data-name="Grupo 24" transform="translate(0.181 937.863)">
    <g id="Grupo_23" data-name="Grupo 23">
      <path id="Caminho_11" data-name="Caminho 11" d="M204.01,431.049c-72.652,0-145.3-63.57-181.629-154.385-18.163-54.489-18.163-99.9-9.081-145.3,9.081-54.489,45.407-90.815,90.815-108.977s108.978,0,154.385,45.407l-63.57,72.652C176.766,122.279,158.6,113.2,140.44,122.279S113.2,149.524,113.2,158.605c-9.082,27.244,0,63.57,9.081,90.815,18.163,63.57,72.652,99.9,99.9,90.815L258.5,431.049C231.255,421.968,213.092,431.049,204.01,431.049Z" transform="translate(-7.334 -15.423)" fill="#03256c"/>
    </g>
  </g>
  <g id="Grupo_26" data-name="Grupo 26" transform="translate(1313.877 928.781)">
    <g id="Grupo_25" data-name="Grupo 25">
      <path id="Caminho_12" data-name="Caminho 12" d="M67.207,440.03c-18.163,0-27.244,0-45.407-9.082l36.326-90.815c27.244,9.082,72.652-27.244,99.9-90.815,9.081-36.326,18.163-63.57,9.081-90.814,0-9.082-9.081-27.244-27.244-36.326s-36.326,0-54.489,18.163L21.8,67.691c45.407-45.407,99.9-63.57,154.385-45.407C221.592,40.446,248.837,76.772,267,131.261c9.082,45.407,9.082,99.9-9.082,145.3C212.511,376.46,139.859,440.03,67.207,440.03Z" transform="translate(-21.8 -15.323)" fill="#03256c"/>
    </g>
  </g>
  <g id="Grupo_28" data-name="Grupo 28" transform="translate(63.124 1259.111)">
    <g id="Grupo_27" data-name="Grupo 27">
      <path id="Caminho_13" data-name="Caminho 13" d="M150.842,294.967c-45.407,0-90.815-27.244-118.059-72.652C-12.624,158.745,5.539,67.931,78.19,22.523c18.163-9.082,45.407,0,63.57,18.163,18.163,27.244,9.081,54.489-18.163,63.57-18.163,9.081-27.244,45.407-18.163,63.57s45.407,27.244,63.57,18.163c27.244-18.163,54.489-9.081,63.57,18.163,18.163,27.244,9.082,54.489-18.163,63.57C196.249,285.886,178.086,294.967,150.842,294.967Z" transform="translate(-8.027 -18.961)" fill="#03256c"/>
    </g>
  </g>
  <g id="Grupo_30" data-name="Grupo 30" transform="translate(1253.957 1266.323)">
    <g id="Grupo_29" data-name="Grupo 29">
      <path id="Caminho_14" data-name="Caminho 14" d="M117.386,287.834c-27.244,0-54.489-9.081-72.652-18.163C17.49,251.508,17.49,224.264,26.572,206.1c18.163-27.244,45.407-27.244,63.57-18.163s45.407,9.082,63.57-18.163c9.082-18.163,9.082-45.407-18.163-63.57S108.3,60.8,117.386,42.634c18.163-27.244,45.407-27.244,63.57-18.163,63.57,45.407,90.815,127.14,45.407,199.792C208.2,260.59,162.793,287.834,117.386,287.834Z" transform="translate(-21.14 -19.04)" fill="#03256c"/>
    </g>
  </g>
  <g id="Grupo_32" data-name="Grupo 32" transform="translate(178.694 236.469)">
    <g id="Grupo_31" data-name="Grupo 31">
      <path id="Caminho_15" data-name="Caminho 15" d="M608.677,1524.3C272.662,1524.3,9.3,1251.86,9.3,924.927V607.076C9.3,271.062,281.744,7.7,608.677,7.7s599.377,272.444,599.377,599.376V924.927C1208.053,1251.86,935.609,1524.3,608.677,1524.3Zm0-1425.789c-281.525,0-508.562,227.036-508.562,508.562V924.927c0,281.525,227.037,508.562,508.562,508.562s508.562-227.036,508.562-508.562V607.076C1108.157,325.551,890.2,98.515,608.677,98.515Z" transform="translate(-9.3 -7.7)" fill="#03256c"/>
    </g>
  </g>
  <g id="Grupo_34" data-name="Grupo 34" transform="translate(958.537 972.067)">
    <g id="Grupo_33" data-name="Grupo 33">
      <path id="Caminho_16" data-name="Caminho 16" d="M146.19,97.533q-13.622,0-27.244-27.244V52.126c0-18.163-9.082-36.326-27.244-36.326h0C55.376,15.8,19.05,52.126,19.05,88.452c-9.081,54.489,36.326,99.9,90.815,90.815,36.326,0,63.57-27.244,72.652-54.489h0c0-9.081-9.082-27.244-36.326-27.244Z" transform="translate(-17.887 -15.8)" fill="#03256c"/>
    </g>
  </g>
  <g id="Grupo_36" data-name="Grupo 36" transform="translate(178.694 1662.258)">
    <g id="Grupo_35" data-name="Grupo 35">
      <path id="Caminho_17" data-name="Caminho 17" d="M862.958,68.807C890.2,32.481,935.609,23.4,981.016,41.563H990.1c127.141,54.489,217.955,145.3,217.955,236.118,0,172.548-263.363,308.77-599.377,308.77S9.3,450.228,9.3,277.681c0-99.9,90.815-190.711,227.037-245.2h0C281.744,14.319,327.151,23.4,354.4,59.726l127.14,154.385c63.57,81.733,190.711,81.733,263.363,0Z" transform="translate(-9.3 -23.4)" fill="#03256c"/>
    </g>
  </g>
  <g id="Grupo_39" data-name="Grupo 39" transform="translate(605.523 1313.401)">
    <g id="Grupo_38" data-name="Grupo 38">
      <g id="Grupo_37" data-name="Grupo 37">
        <path id="Caminho_18" data-name="Caminho 18" d="M14,123.217l63.57-63.57c9.082-9.082,18.163-18.163,27.244-18.163C113.9,32.4,122.978,32.4,132.059,23.32c18.163-9.082,36.326,0,54.489,9.081,9.081,9.082,9.081,9.082,18.163,0,18.163-9.081,36.326-18.163,54.489-9.081s36.326,18.163,45.407,36.326l63.57,63.57h0l-27.244,27.244-36.326,36.326c-63.57,63.57-163.466,63.57-227.036,0L14,123.217Z" transform="translate(-14 -19.559)" fill="#03256c"/>
      </g>
    </g>
  </g>
  <path id="Caminho_19" data-name="Caminho 19" d="M1130.5,23.61C1012.439-12.716,867.136,5.447,740,69.018c-90.815,45.407-181.629,72.652-281.525,81.733h0C240.515,177.995,67.967,386.868,22.56,577.579c-72.652,290.607,118.059,653.865,499.48,853.657-145.3-199.792-145.3-326.932-127.14-408.666h0C431.226,904.511,576.529,868.186,649.181,959l81.733,81.733c336.014,299.688,717.436,217.955,771.924,208.873C1720.793,695.638,1466.512,132.588,1130.5,23.61ZM876.217,850.023c-18.163,18.163-54.489,18.163-81.733,0L612.855,668.394c-18.163-18.163-18.163-54.489,0-81.733,18.163-18.163,54.489-18.163,81.733,0L876.217,768.29C894.38,786.453,894.38,822.778,876.217,850.023Zm299.688,0c-18.163,18.163-54.489,18.163-81.733,0L912.543,668.394c-18.163-18.163-18.163-54.489,0-81.733,18.163-18.163,54.489-18.163,81.733,0L1175.906,768.29C1194.069,786.453,1194.069,822.778,1175.906,850.023Z" transform="translate(-7.332 -5.096)" fill="#03256c"/>
  <g id="Grupo_41" data-name="Grupo 41" transform="translate(459.851 1071.963)">
    <g id="Grupo_40" data-name="Grupo 40">
      <path id="Caminho_20" data-name="Caminho 20" d="M221.637,162.2c-18.163,0-36.326-9.081-45.407-27.244-9.081-9.082-18.163-18.163-36.326-18.163s-27.244,9.081-36.326,18.163C94.5,162.2,58.171,171.285,40.008,153.122c-27.244-9.082-36.326-45.407-18.163-63.57C49.09,44.144,94.5,16.9,139.9,16.9c54.489,0,99.9,27.244,118.059,72.652,9.082,27.244,0,54.489-18.163,63.57C239.8,162.2,230.719,162.2,221.637,162.2Z" transform="translate(-12.396 -16.9)" fill="#03256c"/>
    </g>
  </g>
</svg>
