<svg xmlns="http://www.w3.org/2000/svg" width="6650.477" height="2306.69" viewBox="0 0 6650.477 2306.69">
  <g id="Personas" transform="translate(7077.078 80)">
    <g id="male_x5F_beard" transform="translate(-7077.078 -21)">
      <g id="Grupo_8" data-name="Grupo 8" transform="translate(124.024 1515.867)">
        <g id="Grupo_7" data-name="Grupo 7">
          <path id="Caminho_3" data-name="Caminho 3" d="M653.684,696.156C290.425,696.156,8.9,541.771,8.9,332.9c0-118.059,90.815-217.955,254.281-290.607C326.751,15.046,399.4,33.209,435.729,87.7L653.684,351.06,871.639,78.617C917.046,24.128,989.7,5.965,1044.187,42.291h9.082c154.385,63.57,245.2,172.548,245.2,281.525C1298.468,541.771,1016.942,696.156,653.684,696.156ZM326.751,133.105H308.588C181.448,187.594,108.8,260.246,108.8,341.979c0,127.14,217.955,263.362,544.888,263.362s544.888-136.222,544.888-263.362c0-72.652-72.652-145.3-181.629-190.711,0,0-9.081,0-9.081-9.082-18.163-9.082-45.407,0-54.489,9.082h0L662.765,514.527,372.158,160.35C354,142.187,335.833,133.105,326.751,133.105Z" transform="translate(-8.9 -23.392)" fill="#03256c"/>
        </g>
      </g>
      <g id="Grupo_10" data-name="Grupo 10" transform="translate(169.431 172.548)">
        <g id="Grupo_9" data-name="Grupo 9">
          <path id="Caminho_4" data-name="Caminho 4" d="M608.776,1525.2C272.763,1525.2,9.4,1252.76,9.4,925.827V607.976C9.4,271.962,281.844,8.6,608.776,8.6s599.376,272.444,599.376,599.376V925.827C1208.153,1261.841,944.791,1525.2,608.776,1525.2Zm0-1425.789c-281.525,0-508.562,227.036-508.562,508.562V925.828c0,281.525,227.037,508.561,508.562,508.561s508.562-227.036,508.562-508.561V607.976C1117.338,326.451,890.3,99.415,608.776,99.415Z" transform="translate(-9.4 -8.6)" fill="#03256c"/>
        </g>
      </g>
      <g id="Grupo_12" data-name="Grupo 12" transform="translate(0 810.371)">
        <g id="Grupo_11" data-name="Grupo 11">
          <path id="Caminho_5" data-name="Caminho 5" d="M195.129,431.249c-27.244,0-63.57-9.082-90.815-36.326-36.326-27.244-63.57-72.652-81.733-118.059-18.163-54.489-18.163-99.9-9.081-145.3,9.081-54.489,45.407-90.815,90.815-108.978s108.977,0,154.385,45.407l-81.733,72.652C158.8,122.479,140.64,113.4,122.477,122.479s-27.244,27.244-27.244,36.326c-9.082,27.244,0,63.57,9.081,90.814s36.326,54.489,54.489,72.652c9.082,9.082,27.244,18.163,45.407,9.082l36.326,90.815C222.373,431.249,204.21,431.249,195.129,431.249Z" transform="translate(-7.534 -15.623)" fill="#03256c"/>
        </g>
      </g>
      <g id="Grupo_14" data-name="Grupo 14" transform="translate(1313.695 810.371)">
        <g id="Grupo_13" data-name="Grupo 13">
          <path id="Caminho_6" data-name="Caminho 6" d="M58.326,431.249c-18.163,0-27.244,0-36.326-9.082l36.326-90.815c18.163,9.082,36.326-9.082,45.407-9.082,18.163-18.163,45.407-45.407,54.489-72.652,9.082-36.326,18.163-63.57,9.082-90.815,0-9.082-9.082-27.244-27.244-36.326s-36.326,0-54.489,18.163L22,67.991c45.407-45.407,99.9-63.57,154.385-45.407,45.407,18.163,72.652,54.489,90.815,108.978,9.082,45.407,9.082,99.9-9.081,145.3-18.163,54.489-45.407,90.815-81.733,118.059C121.9,422.167,94.652,431.249,58.326,431.249Z" transform="translate(-22 -15.623)" fill="#03256c"/>
        </g>
      </g>
      <g id="Grupo_16" data-name="Grupo 16" transform="translate(949.274 908.146)">
        <g id="Grupo_15" data-name="Grupo 15">
          <path id="Caminho_7" data-name="Caminho 7" d="M146.29,98.433q-13.622,0-27.244-27.244V53.026c0-18.163-9.082-36.326-27.244-36.326h0C55.476,16.7,19.15,53.026,19.15,89.352c-9.082,54.489,36.326,99.9,90.815,90.815,36.326,0,63.57-27.244,72.652-54.489h0c9.081-9.082-9.082-27.244-36.326-27.244Z" transform="translate(-17.987 -16.7)" fill="#03256c"/>
        </g>
      </g>
      <g id="Grupo_18" data-name="Grupo 18" transform="translate(422.549 908.146)">
        <g id="Grupo_17" data-name="Grupo 17">
          <path id="Caminho_8" data-name="Caminho 8" d="M140.491,98.433q-13.622,0-27.244-27.244V53.026C113.246,34.863,104.165,16.7,86,16.7h0C49.676,16.7,13.35,53.026,13.35,89.352c-9.081,54.489,36.326,99.9,90.815,90.815,36.326,0,63.57-27.244,72.652-54.489h0c9.081-9.082-9.082-27.244-36.326-27.244Z" transform="translate(-12.187 -16.7)" fill="#03256c"/>
        </g>
      </g>
      <g id="Grupo_20" data-name="Grupo 20" transform="translate(169.431 0)">
        <g id="Grupo_19" data-name="Grupo 19">
          <path id="Caminho_9" data-name="Caminho 9" d="M1208.153,905.764l-36.326-535.806c-9.081-63.57-45.407-118.059-99.9-154.385-72.651-45.407-163.466-54.489-236.118-18.163C817.65,88.433,726.835,6.7,608.776,6.7c-54.489,0-108.977,18.163-145.3,54.489-63.57,54.489-145.3,99.9-227.037,108.977-36.326,9.082-63.57,18.163-90.815,36.326h0c-54.489,36.326-90.815,90.815-99.9,154.385L9.4,896.683l18.163-45.407C72.97,687.809,145.622,524.343,236.437,379.04h0c-27.244,108.978-9.081,217.955,45.407,308.77l27.244,45.407v-9.082c-18.163-127.14,18.163-254.281,108.978-354.177C454.392,442.61,536.125,497.1,626.94,497.1s172.548-54.489,208.873-127.14c81.733,99.9,127.14,227.037,108.978,354.177v9.082l27.244-45.407c54.489-99.9,63.57-208.874,45.407-308.77,90.815,145.3,163.466,308.77,208.874,472.236Z" transform="translate(-9.4 -6.7)" fill="#03256c"/>
        </g>
      </g>
      <g id="Grupo_22" data-name="Grupo 22" transform="translate(251.164 808.25)">
        <g id="Grupo_21" data-name="Grupo 21">
          <path id="Caminho_10" data-name="Caminho 10" d="M791.306,487.836c-18.163,18.163-54.489,9.082-63.57-18.163-36.326-54.489-90.815-81.733-154.385-81.733h-99.9c-63.57,0-118.059,36.326-154.385,81.733h0c-18.163,27.244-45.407,27.244-63.57,18.163C110.2,387.94,10.3,215.392,10.3,15.6V297.125c0,308.77,227.037,553.969,517.643,553.969s517.643-245.2,517.643-553.969V15.6C1045.587,215.392,945.691,387.94,791.306,487.836ZM527.943,705.791c-81.733,0-145.3-63.57-145.3-145.3s63.57-81.733,145.3-81.733,145.3,9.081,145.3,81.733C673.247,642.221,609.677,705.791,527.943,705.791Z" transform="translate(-10.3 -15.6)" fill="#03256c"/>
        </g>
      </g>
    </g>
    <g id="female_x5F_short_x5F_hair" transform="translate(-4534.271 -39)">
      <g id="Grupo_24" data-name="Grupo 24" transform="translate(0.181 937.863)">
        <g id="Grupo_23" data-name="Grupo 23">
          <path id="Caminho_11" data-name="Caminho 11" d="M204.01,431.049c-72.652,0-145.3-63.57-181.629-154.385-18.163-54.489-18.163-99.9-9.081-145.3,9.081-54.489,45.407-90.815,90.815-108.977s108.978,0,154.385,45.407l-63.57,72.652C176.766,122.279,158.6,113.2,140.44,122.279S113.2,149.524,113.2,158.605c-9.082,27.244,0,63.57,9.081,90.815,18.163,63.57,72.652,99.9,99.9,90.815L258.5,431.049C231.255,421.968,213.092,431.049,204.01,431.049Z" transform="translate(-7.334 -15.423)" fill="#03256c"/>
        </g>
      </g>
      <g id="Grupo_26" data-name="Grupo 26" transform="translate(1313.877 928.781)">
        <g id="Grupo_25" data-name="Grupo 25">
          <path id="Caminho_12" data-name="Caminho 12" d="M67.207,440.03c-18.163,0-27.244,0-45.407-9.082l36.326-90.815c27.244,9.082,72.652-27.244,99.9-90.815,9.081-36.326,18.163-63.57,9.081-90.814,0-9.082-9.081-27.244-27.244-36.326s-36.326,0-54.489,18.163L21.8,67.691c45.407-45.407,99.9-63.57,154.385-45.407C221.592,40.446,248.837,76.772,267,131.261c9.082,45.407,9.082,99.9-9.082,145.3C212.511,376.46,139.859,440.03,67.207,440.03Z" transform="translate(-21.8 -15.323)" fill="#03256c"/>
        </g>
      </g>
      <g id="Grupo_28" data-name="Grupo 28" transform="translate(63.124 1259.111)">
        <g id="Grupo_27" data-name="Grupo 27">
          <path id="Caminho_13" data-name="Caminho 13" d="M150.842,294.967c-45.407,0-90.815-27.244-118.059-72.652C-12.624,158.745,5.539,67.931,78.19,22.523c18.163-9.082,45.407,0,63.57,18.163,18.163,27.244,9.081,54.489-18.163,63.57-18.163,9.081-27.244,45.407-18.163,63.57s45.407,27.244,63.57,18.163c27.244-18.163,54.489-9.081,63.57,18.163,18.163,27.244,9.082,54.489-18.163,63.57C196.249,285.886,178.086,294.967,150.842,294.967Z" transform="translate(-8.027 -18.961)" fill="#03256c"/>
        </g>
      </g>
      <g id="Grupo_30" data-name="Grupo 30" transform="translate(1253.957 1266.323)">
        <g id="Grupo_29" data-name="Grupo 29">
          <path id="Caminho_14" data-name="Caminho 14" d="M117.386,287.834c-27.244,0-54.489-9.081-72.652-18.163C17.49,251.508,17.49,224.264,26.572,206.1c18.163-27.244,45.407-27.244,63.57-18.163s45.407,9.082,63.57-18.163c9.082-18.163,9.082-45.407-18.163-63.57S108.3,60.8,117.386,42.634c18.163-27.244,45.407-27.244,63.57-18.163,63.57,45.407,90.815,127.14,45.407,199.792C208.2,260.59,162.793,287.834,117.386,287.834Z" transform="translate(-21.14 -19.04)" fill="#03256c"/>
        </g>
      </g>
      <g id="Grupo_32" data-name="Grupo 32" transform="translate(178.694 236.469)">
        <g id="Grupo_31" data-name="Grupo 31">
          <path id="Caminho_15" data-name="Caminho 15" d="M608.677,1524.3C272.662,1524.3,9.3,1251.86,9.3,924.927V607.076C9.3,271.062,281.744,7.7,608.677,7.7s599.377,272.444,599.377,599.376V924.927C1208.053,1251.86,935.609,1524.3,608.677,1524.3Zm0-1425.789c-281.525,0-508.562,227.036-508.562,508.562V924.927c0,281.525,227.037,508.562,508.562,508.562s508.562-227.036,508.562-508.562V607.076C1108.157,325.551,890.2,98.515,608.677,98.515Z" transform="translate(-9.3 -7.7)" fill="#03256c"/>
        </g>
      </g>
      <g id="Grupo_34" data-name="Grupo 34" transform="translate(958.537 972.067)">
        <g id="Grupo_33" data-name="Grupo 33">
          <path id="Caminho_16" data-name="Caminho 16" d="M146.19,97.533q-13.622,0-27.244-27.244V52.126c0-18.163-9.082-36.326-27.244-36.326h0C55.376,15.8,19.05,52.126,19.05,88.452c-9.081,54.489,36.326,99.9,90.815,90.815,36.326,0,63.57-27.244,72.652-54.489h0c0-9.081-9.082-27.244-36.326-27.244Z" transform="translate(-17.887 -15.8)" fill="#03256c"/>
        </g>
      </g>
      <g id="Grupo_36" data-name="Grupo 36" transform="translate(178.694 1662.258)">
        <g id="Grupo_35" data-name="Grupo 35">
          <path id="Caminho_17" data-name="Caminho 17" d="M862.958,68.807C890.2,32.481,935.609,23.4,981.016,41.563H990.1c127.141,54.489,217.955,145.3,217.955,236.118,0,172.548-263.363,308.77-599.377,308.77S9.3,450.228,9.3,277.681c0-99.9,90.815-190.711,227.037-245.2h0C281.744,14.319,327.151,23.4,354.4,59.726l127.14,154.385c63.57,81.733,190.711,81.733,263.363,0Z" transform="translate(-9.3 -23.4)" fill="#03256c"/>
        </g>
      </g>
      <g id="Grupo_39" data-name="Grupo 39" transform="translate(605.523 1313.401)">
        <g id="Grupo_38" data-name="Grupo 38">
          <g id="Grupo_37" data-name="Grupo 37">
            <path id="Caminho_18" data-name="Caminho 18" d="M14,123.217l63.57-63.57c9.082-9.082,18.163-18.163,27.244-18.163C113.9,32.4,122.978,32.4,132.059,23.32c18.163-9.082,36.326,0,54.489,9.081,9.081,9.082,9.081,9.082,18.163,0,18.163-9.081,36.326-18.163,54.489-9.081s36.326,18.163,45.407,36.326l63.57,63.57h0l-27.244,27.244-36.326,36.326c-63.57,63.57-163.466,63.57-227.036,0L14,123.217Z" transform="translate(-14 -19.559)" fill="#03256c"/>
          </g>
        </g>
      </g>
      <path id="Caminho_19" data-name="Caminho 19" d="M1130.5,23.61C1012.439-12.716,867.136,5.447,740,69.018c-90.815,45.407-181.629,72.652-281.525,81.733h0C240.515,177.995,67.967,386.868,22.56,577.579c-72.652,290.607,118.059,653.865,499.48,853.657-145.3-199.792-145.3-326.932-127.14-408.666h0C431.226,904.511,576.529,868.186,649.181,959l81.733,81.733c336.014,299.688,717.436,217.955,771.924,208.873C1720.793,695.638,1466.512,132.588,1130.5,23.61ZM876.217,850.023c-18.163,18.163-54.489,18.163-81.733,0L612.855,668.394c-18.163-18.163-18.163-54.489,0-81.733,18.163-18.163,54.489-18.163,81.733,0L876.217,768.29C894.38,786.453,894.38,822.778,876.217,850.023Zm299.688,0c-18.163,18.163-54.489,18.163-81.733,0L912.543,668.394c-18.163-18.163-18.163-54.489,0-81.733,18.163-18.163,54.489-18.163,81.733,0L1175.906,768.29C1194.069,786.453,1194.069,822.778,1175.906,850.023Z" transform="translate(-7.332 -5.096)" fill="#03256c"/>
      <g id="Grupo_41" data-name="Grupo 41" transform="translate(459.851 1071.963)">
        <g id="Grupo_40" data-name="Grupo 40">
          <path id="Caminho_20" data-name="Caminho 20" d="M221.637,162.2c-18.163,0-36.326-9.081-45.407-27.244-9.081-9.082-18.163-18.163-36.326-18.163s-27.244,9.081-36.326,18.163C94.5,162.2,58.171,171.285,40.008,153.122c-27.244-9.082-36.326-45.407-18.163-63.57C49.09,44.144,94.5,16.9,139.9,16.9c54.489,0,99.9,27.244,118.059,72.652,9.082,27.244,0,54.489-18.163,63.57C239.8,162.2,230.719,162.2,221.637,162.2Z" transform="translate(-12.396 -16.9)" fill="#03256c"/>
        </g>
      </g>
    </g>
    <g id="male_x5F_afro" transform="translate(-1991.461 -80)">
      <g id="Grupo_43" data-name="Grupo 43" transform="translate(205.758 1080.693)" opacity="0.2">
        <g id="Grupo_42" data-name="Grupo 42">
          <path id="Caminho_21" data-name="Caminho 21" d="M1135.8,62.507c-54.489,190.711-172.548,317.851-308.77,317.851H754.38c36.326,118.059-27.244,281.525-172.548,281.525S372.958,507.5,409.284,380.358c-9.082,0-18.163,0-27.244,9.081H336.633C182.248,389.44,55.107,235.055,9.7,17.1V244.137c0,263.362,245.2,490.4,553.969,490.4h0c308.77,0,553.969-217.955,553.969-490.4Z" transform="translate(-9.7 -17.1)" fill="#1a2330"/>
        </g>
      </g>
      <g id="Grupo_45" data-name="Grupo 45" transform="translate(178.513 290.607)">
        <g id="Grupo_44" data-name="Grupo 44">
          <path id="Caminho_22" data-name="Caminho 22" d="M608.776,1534.085C272.763,1534.085,9.4,1261.641,9.4,934.709V607.776C9.4,271.762,281.844,8.4,608.776,8.4s599.376,272.444,599.376,599.376V925.627C1208.153,1261.641,944.791,1534.085,608.776,1534.085Zm0-1434.87c-281.525,0-508.562,227.036-508.562,508.562V925.627c0,281.525,227.037,508.562,508.562,508.562h0c281.525,0,508.562-227.036,508.562-508.562V607.776C1117.338,326.251,890.3,99.215,608.776,99.215Z" transform="translate(-9.4 -8.4)" fill="#03256c"/>
        </g>
      </g>
      <g id="Grupo_47" data-name="Grupo 47" transform="translate(0 937.511)">
        <g id="Grupo_46" data-name="Grupo 46">
          <path id="Caminho_23" data-name="Caminho 23" d="M204.11,431.149c-72.652,0-145.3-63.57-181.629-154.385-18.163-54.489-18.163-99.9-9.081-145.3,9.081-54.489,45.407-90.815,90.815-108.977s108.978,0,154.385,45.407l-63.57,72.652C176.866,122.379,158.7,113.3,140.54,122.379S113.3,149.624,113.3,158.705c-9.081,27.244,0,63.57,9.082,90.815,18.163,63.57,72.652,99.9,99.9,90.815L258.6,431.149C231.355,422.068,213.192,431.149,204.11,431.149Z" transform="translate(-7.434 -15.523)" fill="#03256c"/>
        </g>
      </g>
      <g id="Grupo_49" data-name="Grupo 49" transform="translate(1313.695 928.43)">
        <g id="Grupo_48" data-name="Grupo 48">
          <path id="Caminho_24" data-name="Caminho 24" d="M67.307,440.13c-18.163,0-27.244,0-45.407-9.081l36.326-90.815c27.244,9.082,72.652-27.244,99.9-90.815,9.082-36.326,18.163-63.57,9.082-90.815,0-9.081-9.082-27.244-27.244-36.326s-36.326,0-54.489,18.163L21.9,67.791c45.407-45.407,99.9-63.57,154.385-45.407,45.407,18.163,72.652,54.489,90.815,108.977,9.081,45.407,9.081,99.9-9.082,145.3C212.611,376.56,139.959,440.13,67.307,440.13Z" transform="translate(-21.9 -15.423)" fill="#03256c"/>
        </g>
      </g>
      <g id="Grupo_51" data-name="Grupo 51" transform="translate(449.794 1107.938)">
        <g id="Grupo_50" data-name="Grupo 50">
          <path id="Caminho_25" data-name="Caminho 25" d="M140.691,99.133q-13.622,0-27.244-27.244V53.726c0-18.163-9.082-36.326-27.244-36.326h0C49.876,17.4,13.55,53.726,13.55,90.052c-9.081,54.489,36.326,99.9,90.815,90.815,36.326,0,63.57-27.244,72.652-54.489h0s-18.163-18.163-36.326-27.244Z" transform="translate(-12.387 -17.4)" fill="#03256c"/>
        </g>
      </g>
      <g id="Grupo_53" data-name="Grupo 53" transform="translate(940.193 1107.938)">
        <g id="Grupo_52" data-name="Grupo 52">
          <path id="Caminho_26" data-name="Caminho 26" d="M146.09,99.133q-13.622,0-27.244-27.244V53.726c0-18.163-9.082-36.326-27.244-36.326h0C55.276,17.4,18.95,53.726,18.95,90.052c-9.082,54.489,36.326,99.9,90.815,90.815,36.326,0,63.57-27.244,72.652-54.489h0s-9.082-18.163-36.326-27.244C155.172,108.215,146.09,108.215,146.09,99.133Z" transform="translate(-17.787 -17.4)" fill="#03256c"/>
        </g>
      </g>
      <g id="Grupo_55" data-name="Grupo 55" transform="translate(133.106 1625.581)">
        <g id="Grupo_54" data-name="Grupo 54">
          <path id="Caminho_27" data-name="Caminho 27" d="M653.684,704.209C290.425,704.209,8.9,549.825,8.9,340.951,8.9,222.892,99.715,123,263.181,50.344L317.67,23.1l54.489,81.733c-27.244,18.163-45.407,27.244-72.652,36.326C181.448,195.648,108.8,277.381,108.8,350.033c0,127.14,217.955,263.362,544.888,263.362s544.888-136.222,544.888-263.362c0-72.652-72.652-145.3-181.629-190.711-27.244-9.081-54.489-27.244-81.733-45.407L989.7,32.182c18.163,18.163,36.326,27.244,63.571,36.326,154.385,63.57,245.2,172.548,245.2,281.525C1298.468,549.825,1016.942,704.209,653.684,704.209Z" transform="translate(-8.9 -23.1)" fill="#03256c"/>
        </g>
      </g>
      <g id="Grupo_57" data-name="Grupo 57" transform="translate(569.016 1344.056)">
        <g id="Grupo_56" data-name="Grupo 56">
          <path id="Caminho_28" data-name="Caminho 28" d="M322.47,20H131.759C68.189,20,13.7,74.489,13.7,138.059V474.073c0,36.326,27.244,72.652,63.57,81.733,27.244,9.082,54.489-9.082,72.652-27.244v18.163c0,36.326,27.244,72.652,72.652,81.733s81.733-27.244,81.733-72.652V537.643c18.163,18.163,45.407,36.326,72.652,27.244,36.326-9.082,63.57-45.407,63.57-81.733V147.14C440.529,65.407,386.04,20,322.47,20Zm-99.9,299.688c-72.652,0-136.222-63.57-136.222-136.222s63.57-81.733,136.222-81.733S358.8,110.815,358.8,183.466,295.225,319.688,222.574,319.688Z" transform="translate(-13.7 -20)" fill="#03256c"/>
        </g>
      </g>
      <path id="Caminho_29" data-name="Caminho 29" d="M1461.034,740.8c0-45.407-27.244-81.733-63.57-108.978,27.244-36.326,36.326-72.652,27.244-118.059-18.163-45.407-45.407-72.652-90.815-81.733,18.163-36.326,9.082-81.733-18.163-118.059-18.163-36.326-63.57-54.489-99.9-54.489q0-68.111-54.489-108.977c-36.326-27.244-81.733-27.244-118.059-18.163-9.082-36.326-36.326-72.652-81.733-90.815s-90.815,0-118.059,27.244C825.332,32.444,779.924,5.2,734.517,5.2S652.784,32.444,625.539,68.77C589.214,41.526,552.888,32.444,507.48,41.526c-45.407,18.163-72.652,45.407-81.733,90.815-36.326-18.163-81.733-9.081-118.059,18.163S253.2,223.155,253.2,259.481q-68.111,0-108.977,54.489C116.978,350.3,116.978,395.7,126.059,432.028c-36.326,9.082-72.652,36.326-90.815,81.733s0,90.815,27.244,118.059Q8,672.687,8,740.8c0,45.407,27.244,81.733,63.57,108.977C44.326,886.1,35.244,922.427,44.326,967.834c18.163,45.407,45.407,72.652,90.815,81.733-18.163,36.326-9.081,81.733,18.163,118.059,9.082,18.163,18.163,27.244,36.326,36.326h45.407V949.672c0-127.141,108.977-236.118,236.118-236.118h0c27.244,0,45.407,9.082,72.652,27.245,54.489,45.407,118.059,72.652,190.711,72.652s145.3-27.244,190.711-72.652q40.866-27.244,81.733-27.245h0c127.14,0,236.118,108.977,236.118,236.118v254.281h45.407c18.163-9.082,27.244-18.163,36.326-36.326,27.244-36.326,27.244-81.733,18.163-118.059,36.326-9.082,72.652-36.326,90.815-81.733s0-90.815-27.244-118.059C1442.871,831.613,1461.034,786.205,1461.034,740.8Z" transform="translate(43.372 -5.2)" fill="#03256c"/>
    </g>
  </g>
</svg>
